# xmcd
#
# Track frame offsets:
#	225
#	9115
#	28374
#	42030
#	53619
#	69747
#	85288
#	105115
#	121323
#	133884
#	152010
#	164286
#	184463
#	195490
#
# Disc length: 2787 seconds
#
# Revision: 0
# Processed by: cddbd v1.4PL0 Copyright (c) Steve Scherf et al.
# Submitted via: audiograbber 1.81.03
#
DISCID=b20ae00e
DTITLE=Kuèerovci - Legenda pod sombrery
DYEAR=2001
DGENRE=Country
TTITLE0=Morena de mi corazón
TTITLE1=Aloha oe
TTITLE2=El caacabel
TTITLE3=Hookila
TTITLE4=Camino verde
TTITLE5=Maria dolores
TTITLE6=Felicidad
TTITLE7=Babalu
TTITLE8=Kráèej dál
TTITLE9=Opelu
TTITLE10=Soy soldado de levita
TTITLE11=Angelitos negros
TTITLE12=El guaro
TTITLE13=Maòanitas tapatías
EXTD=
EXTT0=
EXTT1=
EXTT2=
EXTT3=
EXTT4=
EXTT5=
EXTT6=
EXTT7=
EXTT8=
EXTT9=
EXTT10=
EXTT11=
EXTT12=
EXTT13=
PLAYORDER=
